<svg width="680" height="499" viewBox="0 0 753 768" fill="none" xmlns="http://www.w3.org/2000/svg">
<g clip-path="url(#clip0)">
<path d="M302.486 149.352L300.878 156.23L297.011 162.052L301.246 162.637L301.298 169.997C300.698 169.86 299.966 169.706 299.06 169.54C299.138 168.624 299.204 167.7 299.241 166.784C299.281 165.746 299.288 165.5 274.585 159.873C264.678 157.613 254.437 155.28 252.306 154.393C251.43 154.025 248.6 149.013 244.456 138.908C243.301 136.093 242.204 133.263 241.27 130.72L240.607 131.114L239.952 131.508L235.967 133.888L235.091 134.411L234.215 134.934L227.341 168.841L227.3 169.044L227.367 169.239C228.997 173.942 237.671 184.658 251.22 189.302L295.491 198.932V197.994C295.491 197.35 295.491 196.706 295.527 196.062C297.297 196.589 299.132 196.863 300.978 196.875L300.374 206.9L300.407 207.021C300.819 208.493 302.284 209.766 304.639 210.683C307.418 211.676 310.35 212.174 313.302 212.155C315.988 212.155 318.41 211.739 319.76 210.892L320.047 210.712L321.659 201.192C322.781 200.949 323.852 200.514 324.824 199.904C326.616 198.737 327.488 197.092 327.352 195.153C327.29 194.274 327.691 193.644 328.283 192.864C328.618 192.526 328.904 192.144 329.133 191.727C330.073 190.445 330.587 188.901 330.605 187.311C330.593 185.9 330.815 184.497 331.264 183.16L331.286 183.083C331.395 182.794 331.482 182.498 331.547 182.196C331.65 181.828 331.757 181.408 331.864 180.93C332.102 179.985 332.102 178.996 331.864 178.051C331.625 177.106 331.156 176.236 330.499 175.517C329.513 174.432 328.321 173.556 326.991 172.941L328.232 166.357L333.063 167.027L330.962 159.976L331.216 153.128L302.486 149.352ZM328.526 164.892L323.127 164.156L306.424 161.816L302.744 161.304L302.008 161.201L301.25 161.095L299.612 160.87L302.118 157.098L329.637 160.734L330.973 165.213L328.526 164.892ZM329.656 154.438L329.483 159.222L302.56 155.652L303.642 151.026L329.656 154.438ZM295.605 194.487C295.888 189.986 296.65 185.552 297.393 181.239C297.971 177.905 298.552 174.486 298.917 171.045C299.921 171.233 300.694 171.413 301.309 171.546V172.046C301.467 174.516 305.412 176.462 313.033 177.806C314.439 178.056 315.856 178.255 317.206 178.416C319.234 179.06 322.682 180.919 323.996 183.108C324.622 184.154 324.688 185.125 324.195 186.075C324.07 186.373 323.886 186.644 323.654 186.87C323.422 187.095 323.146 187.272 322.844 187.388C321.589 187.778 319.749 186.792 317.968 185.839C316.305 184.952 314.597 184.04 313.044 184.062V183.988C312.882 184.021 312.728 184.058 312.577 184.102C312.41 184.126 312.245 184.163 312.084 184.212C311.352 184.457 310.726 184.944 310.31 185.592C310.137 185.807 309.986 186.039 309.861 186.284C309.217 187.558 309.224 189.092 309.861 190.63C309.78 190.737 309.67 190.87 309.57 190.998C308.834 191.889 307.561 193.412 307.789 195.333C306.795 195.276 305.799 195.276 304.805 195.333C302.133 195.414 298.402 195.54 295.605 194.487ZM308.032 196.25C308.058 196.327 308.091 196.404 308.124 196.482H307.992L308.032 196.25ZM325.847 195.252C325.943 196.632 325.321 197.77 324.007 198.631C321.431 200.323 317.078 200.404 315.079 199.367C314.1 198.848 313.272 198.432 312.61 198.097C310.454 197.012 309.879 196.699 309.545 195.974C308.838 194.447 309.754 193.155 310.748 191.963L310.914 191.768C313.975 194.171 317.501 195.448 320.945 195.448C321.768 195.448 322.59 195.374 323.4 195.227C324.251 195.076 325.081 194.829 325.876 194.491C325.84 194.743 325.83 194.998 325.847 195.252V195.252ZM329.082 187.263C329.038 189.387 328.158 190.535 327.304 191.65L327.139 191.863C326.244 192.735 324.802 193.42 323.116 193.733C321.243 194.079 316.36 194.41 311.311 190.134C310.792 188.974 310.748 187.852 311.201 186.958C311.201 186.925 311.241 186.891 311.259 186.855H311.289C311.355 186.728 311.429 186.605 311.51 186.487C311.873 186.055 312.353 185.738 312.893 185.574C314.067 185.46 315.686 186.31 317.258 187.164C318.932 188.058 320.651 188.974 322.233 188.974C322.592 188.976 322.95 188.924 323.293 188.82C324.189 188.519 324.935 187.885 325.376 187.05V187.098C326.722 186.918 328.013 186.451 329.163 185.729C329.126 186.178 329.096 186.678 329.082 187.263V187.263ZM329.369 176.507C329.869 177.048 330.226 177.706 330.406 178.421C330.587 179.136 330.586 179.885 330.403 180.599C330.322 180.967 330.241 181.276 330.16 181.574C330.16 181.644 330.134 181.717 330.123 181.791C330.027 182.13 329.935 182.435 329.847 182.722C329.402 183.782 328.394 184.879 325.991 185.445C326.147 184.359 325.907 183.252 325.313 182.328C324.511 180.992 323.105 179.785 321.586 178.829C323.367 178.957 324.688 179.005 325.151 179.005H325.306L325.887 178.965L326.73 174.508C327.725 175.007 328.619 175.684 329.369 176.507Z" fill="black"/>
<path d="M286.298 416.17V416.063L285.194 412.196C285.271 411.773 285.194 411.003 284.429 409.557L284.395 409.447H284.37C284.226 409.171 284.061 408.873 283.866 408.545C282.901 406.926 273.963 392.843 257.439 396.718C243.86 399.905 240.103 395.054 237.615 391.845C237.105 391.119 236.511 390.456 235.845 389.869L186.614 236.045C189.666 235.977 192.713 235.746 195.741 235.353C195.763 239.541 195.781 243.516 195.781 247.376H197.29C197.29 243.446 197.29 239.401 197.249 235.133C199.98 234.719 202.664 234.037 205.261 233.098L198.011 255.954L199.45 256.407L214.762 208.037H215.914L216.139 207.812C216.297 207.654 216.371 207.58 219.377 195.271C221.026 188.54 223.51 178.185 226.001 167.078C228.759 154.812 230.912 144.439 232.46 135.96L231.591 136.479L230.723 136.998L199.479 155.667C186.231 163.027 176.192 166.677 169.138 166.677C166.137 166.677 163.671 166.019 161.737 164.701C153.925 159.409 155.787 144.829 157.586 130.713C158.352 124.718 159.058 119.058 159.058 114.186H160.567C160.567 119.154 159.831 124.858 159.069 130.904C157.329 144.56 155.526 158.681 162.569 163.45C168.56 167.498 180.38 164.536 198.71 154.357L230.436 135.401L231.069 135.033L231.127 135L231.937 134.518L232.802 133.999L234.609 132.921L235.485 132.394L236.36 131.872L239.415 130.05L240.074 129.656L240.732 129.259L253.557 121.597L248.32 111.978L248.733 112.644L249.159 112.375L249.8 111.97L249.976 111.86L266.312 101.556L266.367 101.519C269.026 99.5178 271.568 97.3638 273.977 95.0682L282.636 96.9634H282.695L283.159 97.0002C284.204 97.0848 284.763 97.1253 284.925 97.1253C288.929 97.1253 289.625 93.4453 289.996 91.4728L295.045 54.9893C295.126 54.1576 295.222 53.3848 295.307 52.6672C295.675 49.6128 295.932 47.4085 294.736 45.9107C293.901 44.8693 292.466 44.2915 290.085 44.0486L272.218 41.1341C268.513 40.6851 266.919 44.3762 266.599 46.3891C266.597 46.4099 266.597 46.4309 266.599 46.4517L263.504 66.055C258.889 66.0182 252.464 68.631 250.966 73.1758C249.388 78.0114 249.101 80.4365 249.086 85.4082L239.518 92.5989L239.352 92.724L238.741 93.1803L238.296 93.5152L238.263 93.4526L233.751 96.3966L233.093 96.8309L232.43 97.2614L225.181 102.001L224.496 102.45L193.216 122.918C193.114 123.029 192.976 123.1 192.826 123.117L188.697 124.07L191.983 121.921V121.94L192.602 121.601C195.041 120.25 196.558 119.224 197.581 118.252L232.066 95.7011L232.717 95.2742L233.365 94.851C231.83 89.2722 229.449 85.7725 226.237 84.4109C220.893 82.144 214.674 86.2803 210.832 89.4819C210.924 89.1139 211.013 88.7643 211.105 88.4037C212.323 83.5498 213.478 78.9461 213.64 76.6645L214.199 76.4658C217.688 75.2293 228.298 71.4683 228.15 63.8654C227.885 49.933 223.675 39.4634 218.111 33.5018C223.127 29.336 226.531 24.6256 225.56 19.768C224.879 16.375 222.789 14.2922 219.513 13.7365C211.484 12.3786 197.132 20.8573 191.59 30.2376C189.194 34.2856 187.987 44.6117 191.939 47.7434C191.634 50.0443 191.452 52.3598 191.394 54.6802C191.148 63.7182 190.611 71.5677 190.011 75.6746C188.412 74.8278 186.681 74.258 184.892 73.9891C175.832 72.6165 166.86 78.7989 159.75 90.8877C159.706 90.7994 159.655 90.711 159.603 90.619C157.505 86.9869 148.931 80.2525 137.681 80.2525H137.501C129.431 80.304 117.736 84.0613 107.847 101.677C107.432 102.413 104.903 106.351 101.422 111.764C100.8 111.61 100.318 111.455 99.9207 111.326C97.9004 110.664 97.4441 111.021 95.8065 113.321C92.8625 117.439 88.1447 125.947 87.946 126.308L87.8099 126.551L87.8651 126.827C88.0601 127.772 89.1678 127.886 90.2387 127.997C90.4116 128.015 90.6471 128.037 90.8753 128.07C82.7977 140.553 74.8894 152.789 73.5278 155.118C67.1172 166.103 68.2359 172.808 70.3004 176.499C72.7623 180.915 77.8518 183.407 84.6267 183.557L123.002 184.415C119.281 195.135 116.819 203.323 116.886 206.127V206.863L121.85 206.922C115.914 231.615 127.528 253.319 133.523 264.264L94.099 378.344C92.9582 380.794 90.0252 385.174 86.923 389.81C82.3708 396.607 79.0809 401.634 77.9659 404.571C77.2867 404.558 76.6213 404.763 76.067 405.156C73.9988 406.562 72.6924 410.308 73.2702 413.197C73.6382 415.059 74.7422 416.266 76.3835 416.597C77.4494 416.833 78.5322 416.984 79.6219 417.05C79.5262 417.786 79.6219 418.823 80.0855 420.336C80.5823 421.922 83.427 422.478 89.5726 422.176C89.039 424.24 89.2303 425.856 90.1356 427.026C91.994 429.389 96.1561 428.995 98.6438 428.759L99.3283 428.701C98.7726 431.207 99.0339 433.003 100.112 434.173C102.011 436.234 105.853 435.505 108.392 435.027C108.867 434.938 109.408 434.835 109.82 434.78C108.786 437.356 109.54 438.975 110.398 439.88C112.293 441.886 116.19 442.052 117.596 441.474C119.539 440.672 120.249 440.572 120.51 440.587C120.503 440.805 120.481 441.023 120.444 441.238C120.312 442.191 120.076 443.792 121.717 444.62C124.102 445.831 126.325 446.431 128.341 446.431C129.71 446.446 131.063 446.134 132.287 445.521C133.51 444.907 134.57 444.011 135.378 442.905C136.054 443.951 137.109 444.693 138.322 444.977C139.843 445.339 141.433 445.295 142.932 444.848C144.431 444.402 145.787 443.57 146.863 442.434C148.651 440.447 149.049 437.79 148 434.935C148.898 429.488 148.166 425.068 145.821 421.801C142.163 416.696 135.547 415.644 131.988 415.081C131.325 414.999 130.668 414.868 130.023 414.691C127.053 411.217 124.209 402.411 127.134 393.523L127.344 392.887L125.787 392.151L160.203 317.112L201.419 399.25C200.834 400.457 201.629 401.918 202.354 402.985C204.194 408.284 205.22 413.804 206.122 418.684C207.108 424.016 207.962 428.649 209.647 431.376C208.911 433.312 209.526 438.269 210.104 440.326C210.527 441.798 211.02 442.534 211.712 442.703C212.119 442.793 212.535 442.839 212.952 442.839C215.418 442.839 217.033 441.139 218.052 440.064C218.322 439.76 218.616 439.478 218.932 439.222C219.104 439.5 219.235 439.801 219.322 440.116C219.429 440.486 219.628 440.823 219.902 441.094C220.176 441.366 220.515 441.562 220.886 441.665C223.024 442.272 226.13 440.193 226.774 439.627C227.916 438.731 228.853 437.602 229.523 436.315L229.891 436.624C231.418 437.959 232.982 438.464 234.535 438.155C237.03 437.643 238.797 435.1 239.768 433.267C240.178 433.546 240.549 433.877 240.872 434.254C241.895 435.358 242.436 435.402 246.635 434.622C250.9 433.842 252.972 430.942 253.896 429.573C254.532 430.136 255.278 430.562 256.086 430.823C256.895 431.084 257.749 431.175 258.595 431.089C260.947 430.931 263.077 429.746 264.023 428.075C264.454 427.31 264.759 426.747 264.95 426.338C268.689 427.81 269.344 427.56 273.021 425.436C274.257 424.723 275.092 423.291 275.597 422.286C277.131 423.273 279.95 423.328 280.907 423.089C282.456 422.716 283.833 421.829 284.812 420.572C285.792 419.315 286.315 417.763 286.298 416.17V416.17ZM239.47 94.5382L240.081 94.0819L240.246 93.9568L250.613 86.1846V85.8166C250.613 80.7677 250.86 78.4346 252.416 73.6726C253.623 69.9926 259.254 67.6485 263.283 67.5896C263.545 67.5896 263.795 67.5896 264.041 67.608C264.211 67.608 264.376 67.6227 264.538 67.6522C264.373 67.9392 264.141 68.2998 263.868 68.7046C263.596 69.1094 263.243 69.6283 262.878 70.1435C261.197 72.5245 258.981 75.439 258.591 75.9101L256.88 77.9819L259.423 77.1024C260.104 76.8669 260.608 76.2413 261.013 75.7408C261.153 75.5678 261.285 75.4022 261.381 75.2918C261.646 75.0306 261.918 74.7251 262.194 74.4013C262.47 74.0774 262.823 73.6395 263.147 73.2126C263.471 72.7858 263.795 72.3368 264.126 71.8584C265.926 69.2824 267.839 65.9925 269.598 62.9786C271.556 59.6334 273.988 55.4677 274.75 55.1144C275.681 54.7942 276.903 54.5293 277.444 55.1144C278.099 55.8062 277.985 57.7162 277.197 60.2002C276.535 60.9693 275.648 62.6989 274.298 65.3522C272.689 68.5317 270.489 72.8851 269.26 73.5733L269.996 74.8907C271.508 74.0443 273.289 70.6845 275.641 66.033C276.126 65.0725 276.62 64.0973 277.065 63.2656L277.484 63.4643L277.827 62.835C281.032 56.9286 282.979 55.7989 284.038 55.8946C284.212 55.8864 284.385 55.9252 284.538 56.0068C284.692 56.0883 284.82 56.2098 284.911 56.3582C285.926 58.1982 282.883 64.2371 281.599 66.8205C281.106 67.803 280.741 68.5243 280.594 68.9475C278.809 72.4987 275.21 79.3398 274.474 79.9875C274.539 79.9425 274.611 79.91 274.688 79.8918L275.03 81.3638C275.398 81.2792 275.74 81.1946 277.827 77.4483L277.249 79.2221L281.963 69.5842C283.409 66.6402 284.2 66.217 284.359 66.1618C284.752 66.5298 285.216 69.0027 284.186 74.3976C282.99 80.6536 280.506 86.5232 273.514 93.4526C273.304 93.6624 273.09 93.8722 272.87 94.0819L272.207 94.7112C270.066 96.6958 267.825 98.5713 265.495 100.331L249.266 110.55L249.229 110.572L247.698 108.088L240.611 96.6506L239.363 94.6302L239.47 94.5382ZM275.99 50.3782C275.755 50.8456 275.203 51.5669 274.713 51.6662C272.638 52.0894 273.58 49.7085 273.834 48.9725C274.754 46.3266 277.267 47.8206 275.99 50.3893V50.3782ZM276.101 420.711L275.843 420.005L275.137 420.259C274.813 420.373 274.713 420.605 274.54 420.995C274.235 421.675 273.436 423.486 272.281 424.145C268.87 426.114 268.715 426.206 265.44 424.914C265.4 424.764 265.316 424.63 265.198 424.53C265.081 424.429 264.935 424.367 264.781 424.351C264.6 424.335 264.418 424.382 264.268 424.486C264.118 424.589 264.01 424.742 263.96 424.918C263.601 425.753 263.188 426.564 262.724 427.346C262.032 428.568 260.339 429.473 258.507 429.599C256.818 429.713 255.364 429.135 254.514 428.012C254.436 427.909 254.335 427.826 254.218 427.77C254.102 427.714 253.973 427.687 253.844 427.692C253.362 427.692 253.108 428.06 252.74 428.631C251.897 429.875 250.146 432.462 246.385 433.15C242.624 433.838 242.484 433.753 242.009 433.234C241.393 432.544 240.657 431.969 239.838 431.538L239.496 431.35L239.128 431.519C238.936 431.617 238.789 431.784 238.716 431.987C237.435 434.644 235.797 436.355 234.222 436.675C233.155 436.896 232.014 436.495 230.874 435.487C230.104 434.817 229.714 434.482 229.162 434.589C228.61 434.695 228.426 435.1 228.239 435.505C227.657 436.664 226.823 437.679 225.799 438.475C224.886 439.24 222.465 440.55 221.287 440.212C221.153 440.179 221.03 440.108 220.934 440.009C220.837 439.909 220.771 439.784 220.742 439.649C220.463 438.787 220.065 437.886 219.252 437.698C218.439 437.511 217.718 438.21 216.945 439.023C215.808 440.223 214.391 441.706 212.091 441.231C211.307 440.469 210.593 435.107 210.806 432.804C210.821 432.524 210.877 432.247 210.972 431.983H211.02L211.859 431.744L283.347 411.32L283.534 411.964L283.766 412.759L283.991 413.539L284.789 416.288C284.778 417.523 284.354 418.719 283.585 419.686C282.816 420.652 281.747 421.335 280.546 421.624C279.28 421.955 276.366 421.455 276.101 420.722V420.711ZM226.421 391.926C226.366 383.643 226.358 373.604 226.421 365.475L234.208 389.803L226.421 391.926ZM224.916 392.335L222.03 393.122C218.034 391.761 212.555 392.11 207.943 392.408C206.376 392.508 204.885 392.603 203.579 392.626C202.331 388.055 202.39 378.987 202.508 369.272C204.841 369.427 207.244 369.64 209.629 369.835C214.258 370.233 219.046 370.641 223.017 370.641V369.132C219.109 369.132 214.553 368.742 209.769 368.334C207.351 368.128 204.907 367.918 202.538 367.764C202.655 357.894 202.758 347.755 201.526 341.304C204.47 341.407 207.414 341.485 210.556 341.485C213.132 341.485 215.822 341.433 218.711 341.312L224.989 360.926C224.846 369.736 224.846 382.373 224.912 392.346L224.916 392.335ZM138.204 297.185C137.755 292.493 137.405 288.78 137.313 287.4C139.783 287.543 142.554 287.69 145.516 287.838L157.02 310.764C150.396 310.44 144.467 310.124 139.381 309.822C139.006 305.704 138.609 301.45 138.204 297.185ZM136.625 242.839C136.662 239.865 136.695 236.832 136.724 233.738C143.775 233.804 151.404 234.36 158.889 234.904L164.898 235.335C165.013 241.639 165.182 248.451 165.395 254.975C165.436 256.193 165.48 257.481 165.528 258.824C154.606 258.239 143.212 258.964 136.5 262.136C136.47 255.674 136.544 249.337 136.625 242.839V242.839ZM136.769 224.891C136.769 223.184 136.879 221.524 136.989 219.92C137.151 217.528 137.284 215.544 136.989 214.098C138.178 214.197 139.371 214.219 140.563 214.164C149.027 213.638 156.99 213.627 164.891 213.822C164.77 215.139 164.689 218.322 164.759 226.422C164.781 228.752 164.814 231.236 164.854 233.819L158.966 233.399C151.455 232.851 143.805 232.295 136.706 232.225C136.748 229.826 136.769 227.381 136.769 224.891V224.891ZM165.664 214.009L165.69 213.84H166.238C166.16 213.907 166.068 213.957 165.969 213.986C165.87 214.015 165.766 214.023 165.664 214.009ZM167.026 287.208C159.975 286.954 152.806 286.656 146.476 286.355L137.144 267.8C136.964 267.432 136.776 267.046 136.54 266.633C136.54 265.699 136.518 264.768 136.511 263.84C142.804 260.528 154.451 259.792 165.583 260.388C165.896 268.746 166.363 278.869 167.011 287.208H167.026ZM136.592 270.052L144.728 286.27C142.016 286.137 139.488 286.001 137.218 285.872C136.894 280.367 136.699 275.134 136.592 270.052ZM147.264 287.919C153.443 288.213 160.354 288.5 167.136 288.743C167.688 295.393 168.369 300.692 169.189 302.683C169.701 303.919 169.925 307.5 170.08 311.371L166.4 311.206C163.755 311.088 161.2 310.965 158.734 310.838L147.264 287.919ZM196.87 295.113C197.047 300.265 197.26 306.344 197.533 312.435C190.684 312.214 181.62 311.872 171.592 311.437C171.442 307.308 171.188 303.566 170.584 302.105C169.903 300.453 169.248 295.849 168.656 288.794C179.276 289.162 189.463 289.413 195.958 289.413H196.668C196.731 291.139 196.8 293.082 196.87 295.113ZM170.131 312.906C170.168 314.142 170.198 315.382 170.227 316.56C170.385 322.919 170.485 324.722 170.89 325.318L172.141 324.468L172.17 324.524C171.92 323.92 171.824 319.99 171.736 316.523C171.707 315.357 171.677 314.157 171.644 312.972C181.297 313.395 190.526 313.745 197.603 313.966C198.07 324.06 198.707 334.003 199.682 339.726L195.818 339.564C190.887 339.35 185.783 339.129 180.016 339.129V340.638C185.753 340.638 190.835 340.859 195.752 341.069L199.965 341.245C201.239 347.501 201.135 357.721 201.018 367.672C195.752 367.373 190.938 367.403 187.615 368.371L159.537 312.402C163.055 312.586 166.613 312.751 170.131 312.906ZM201.224 339.796C200.245 334.224 199.59 324.214 199.115 314.013C203.413 314.139 206.784 314.212 208.786 314.212C209.287 314.212 209.699 314.212 210.019 314.212L218.222 339.843C211.899 340.086 206.512 339.991 201.224 339.796ZM199.045 312.483C198.769 306.363 198.559 300.25 198.379 295.061C198.302 292.853 198.236 290.969 198.177 289.402C199.884 289.383 201.205 289.335 202.041 289.262L209.544 312.714C207.925 312.725 204.216 312.644 199.045 312.483V312.483ZM201.57 287.79C200.775 287.849 199.605 287.882 198.118 287.896C197.971 284.169 197.871 282.579 197.75 282.159L196.311 282.612C196.403 282.98 196.51 285.011 196.624 287.904C190.232 287.904 179.622 287.646 168.545 287.26C168.001 280.341 167.515 271.289 167.114 260.462C175.21 260.992 182.857 262.206 187.825 263.616L188.237 262.166C183.059 260.694 175.258 259.446 167.055 258.913C167.018 257.879 166.981 256.834 166.948 255.77C166.702 248.443 166.532 241.499 166.426 235.434C172.1 235.802 177.731 236.104 183.07 236.104C183.733 236.104 184.384 236.104 185.035 236.104L201.57 287.79ZM186.114 234.562L184.94 230.882L183.505 231.368L184.542 234.606C178.772 234.669 172.608 234.356 166.385 233.94C166.209 223.301 166.234 215.651 166.385 213.881C171.169 214.013 175.953 214.219 180.811 214.429C185.668 214.639 190.607 214.848 195.678 214.988C195.638 221.104 195.678 227.548 195.7 233.867C192.522 234.28 189.322 234.512 186.117 234.562H186.114ZM205.827 231.25C203.062 232.378 200.173 233.174 197.22 233.62C197.187 227.386 197.157 221.038 197.198 215.014C200.414 215.091 203.682 215.143 207.012 215.143V213.634C203.7 213.634 200.425 213.583 197.209 213.502C197.209 211.57 197.249 209.674 197.282 207.827L213.184 208.018L205.827 231.25ZM84.6598 182.056C78.4406 181.92 73.8075 179.686 71.6179 175.767C68.9315 170.983 70.0428 164.094 74.8305 155.895C76.1811 153.584 84.1409 141.274 92.2406 128.751L92.8441 127.82L93.7604 126.407C95.3575 123.934 96.9399 121.494 98.4414 119.168C98.8425 119.168 99.2547 119.187 99.6926 119.187C102.872 119.187 107.031 118.937 111.391 118.672C115.892 118.403 120.547 118.123 124.227 118.123H126.288C131.727 118.123 141.641 118.098 148 118.491L148.787 118.543L149.325 118.583C146.524 126.08 143.437 134.26 140.375 142.198C139.639 144.123 138.903 146.032 138.167 147.913C134.119 158.408 130.288 168.057 127.561 174.6L127.304 174.659L126.825 174.777L126.476 174.858L126.317 175.174V175.208C123.572 180.728 123.182 182.328 123.27 182.936L84.6598 182.056ZM102.994 112.136C106.342 106.94 108.745 103.186 109.161 102.443C118.696 85.4597 129.843 81.8349 137.497 81.787H137.696C148.206 81.787 156.427 88.1387 158.304 91.3992C158.764 92.1941 158.757 92.6246 158.672 92.7571L158.606 92.897C158.601 92.9159 158.595 92.9343 158.587 92.9522C158.057 94.5272 157.369 96.5034 156.552 98.7997C154.812 103.672 152.478 110.053 149.84 117.093L149.332 117.052L148.545 116.994C142.23 116.57 132.25 116.589 126.262 116.6H124.227C120.503 116.6 115.826 116.88 111.303 117.152C106.78 117.424 102.57 117.682 99.4239 117.656L102.368 113.071L102.986 112.114L102.994 112.136ZM148.158 172.363C143.275 175.642 135.598 179.811 126.078 181.728L125.515 181.839L125.147 181.909L124.923 181.957C125.683 179.977 126.543 178.036 127.499 176.142H127.554L127.73 176.102L128.647 175.874C139.944 172.97 149.384 167.071 155.456 159.115C156.104 160.878 156.841 162.607 157.664 164.296C156.832 165.386 153.468 168.808 148.158 172.363ZM219.259 15.2269C221.902 15.6758 223.525 17.3061 224.08 20.0698C224.923 24.276 221.721 28.5338 217.026 32.4309L216.411 32.9277C216.216 33.0859 216.014 33.2442 215.811 33.3987C209.231 38.4882 200.355 42.8195 195.277 45.3035L193.728 46.0653L192.907 46.4701L192.815 46.5179C192.596 46.3304 192.4 46.118 192.23 45.885C189.882 42.676 190.975 34.2525 192.889 31.0104C197.72 22.8334 210.037 15.1018 217.67 15.1018C218.202 15.0992 218.734 15.141 219.259 15.2269V15.2269ZM192.094 70.4269C192.462 66.1213 192.749 60.4026 192.903 54.7427C192.961 52.4555 193.141 50.1731 193.444 47.9053C194.143 47.5373 194.983 47.1435 195.939 46.6762C201.507 43.9566 210.317 39.6547 216.915 34.499C218.031 35.6939 219.035 36.9885 219.914 38.3667C222.858 42.9262 226.399 51.059 226.642 63.928C226.767 70.4416 216.93 73.9302 213.695 75.0747C212.477 75.509 212.15 75.623 212.15 76.2082C212.15 78.0776 210.873 83.1597 209.64 88.0688C209.368 89.1728 209.095 90.2326 208.841 91.263C208.569 91.5133 208.319 91.7451 208.105 91.9438C207.793 92.2346 207.469 92.5363 207.369 92.5989C207.027 92.8344 205.563 92.6283 204.326 92.4149C204.286 92.2519 204.238 92.091 204.182 91.9328C204.083 91.6752 203.947 91.3182 200.263 89.3053L199.634 88.963L199.616 88.9925C198.438 83.6344 195.454 79.1779 191.387 76.5136C191.626 75.1336 191.862 73.1906 192.094 70.4122V70.4269ZM195.866 108.923C197.054 104.875 198.331 100.544 199.178 96.956C199.24 96.7058 199.295 96.4592 199.351 96.22C199.406 95.9808 199.468 95.6974 199.524 95.4435C199.689 94.6707 199.829 93.9458 199.936 93.287C199.98 93.0258 200.017 92.7755 200.046 92.5326C200.076 92.2898 200.109 92.0211 200.131 91.7966C200.153 91.5722 200.171 91.2446 200.175 90.9981C200.543 91.2115 200.933 91.4286 201.279 91.6384L201.871 92.0064C202.196 92.1973 202.51 92.4049 202.814 92.6283C202.845 92.7314 202.875 92.8418 202.902 92.9595C202.96 93.2203 203.002 93.4846 203.027 93.7507C203.105 94.8136 203.088 95.8814 202.975 96.9413C202.95 97.1952 202.924 97.4528 202.894 97.7178C202.865 97.9827 202.836 98.2146 202.802 98.4538C202.254 102.586 200.962 107.602 199.785 110.473C199.343 111.536 199.049 112.416 198.754 113.192C197.846 115.731 197.444 116.872 194.57 118.712C194.103 119.018 193.573 119.341 192.962 119.695C193.319 117.575 194.71 112.85 195.866 108.909V108.923ZM90.3895 126.488C90.1724 126.466 89.8707 126.433 89.6204 126.392C90.798 124.302 94.6068 117.597 97.0356 114.189C97.595 113.402 98.1396 112.684 98.4193 112.537C98.5591 112.471 98.8131 112.537 99.4534 112.754C99.7515 112.85 100.116 112.968 100.557 113.093L91.7585 126.709C91.3092 126.597 90.8513 126.523 90.3895 126.488ZM123.414 206.925L195.777 207.816C195.741 209.656 195.719 211.544 195.704 213.468C190.651 213.325 185.724 213.1 180.892 212.909C167.43 212.331 154.716 211.783 140.489 212.663C139.123 212.722 137.754 212.683 136.393 212.545C136.243 212.338 136.061 212.158 135.852 212.011C135.035 211.441 133.906 211.478 132.415 212.107L131.845 212.037C129.416 211.682 126.968 211.467 124.514 211.393V212.902C126.907 212.976 129.293 213.187 131.661 213.535C132.916 213.689 134.189 213.844 135.425 213.969C135.793 215.18 135.639 217.531 135.484 219.824C135.378 221.38 135.26 223.136 135.26 224.899C135.26 227.386 135.249 229.83 135.227 232.229C131.107 232.191 126.99 232.446 122.906 232.991C121.394 224.991 121.136 216.166 123.414 206.936V206.925ZM123.204 234.456C127.186 233.932 131.2 233.686 135.216 233.72C135.191 236.811 135.158 239.841 135.116 242.809C135.032 249.58 134.954 256.179 134.995 262.931C134.881 263.001 134.767 263.071 134.656 263.145C131.116 256.683 125.765 246.596 123.204 234.467V234.456ZM134.52 266.037L135.032 266.987C135.116 273 135.315 279.19 135.705 285.755C132.279 285.545 129.563 285.35 127.9 285.177L134.52 266.037ZM127.396 286.645C129.099 286.837 132.036 287.054 135.793 287.286V287.414C135.878 288.772 136.217 292.353 136.688 297.303C137.015 300.754 137.424 305.075 137.847 309.704C128.673 309.141 122.45 308.637 119.925 308.232L127.396 286.645ZM119.436 309.675C122.096 310.131 129.044 310.676 137.998 311.224C138.859 320.792 139.731 331.372 140.014 338.272C132.47 337.234 122.159 336.193 115.288 336.086C114.766 332.252 114.056 329.37 113.114 327.964L119.436 309.675ZM112.444 329.915C112.996 331.295 113.445 333.422 113.802 336.086C112.614 336.08 111.427 336.141 110.247 336.27L112.444 329.915ZM109.687 337.886C111.109 337.652 112.549 337.552 113.989 337.588C114.788 344.58 115.046 354.6 114.965 364.452C109.102 363.995 102.909 363.484 100.981 363.105L109.687 337.886ZM100.487 364.51C102.004 364.878 105.639 365.221 114.95 365.946C114.858 373.582 114.563 381.011 114.159 386.741L95.7587 378.211L100.487 364.51ZM138.759 443.498C137.817 443.244 136.636 442.629 136.334 441.165L136.18 440.407L135.425 440.583C135.102 440.657 134.962 440.874 134.77 441.172C132.095 445.349 127.944 446.048 122.435 443.251C121.831 442.942 121.831 442.46 121.975 441.411C122.078 440.675 122.192 439.855 121.537 439.343C121.245 439.133 120.891 439.028 120.532 439.045C119.796 439.045 118.692 439.365 117.058 440.039C116.253 440.374 112.985 440.34 111.538 438.806C110.67 437.89 110.655 436.539 111.491 434.791C111.595 434.612 111.645 434.407 111.633 434.2C111.622 433.994 111.551 433.795 111.428 433.628C110.931 432.98 109.956 433.168 108.157 433.507C105.949 433.923 102.596 434.555 101.268 433.113C100.462 432.244 100.384 430.599 101.036 428.23C101.072 428.099 101.076 427.963 101.048 427.831C101.019 427.699 100.96 427.576 100.874 427.471C100.506 427.037 99.9723 427.103 98.5481 427.221C96.5094 427.413 92.7153 427.77 91.3684 426.055C90.6987 425.205 90.6324 423.847 91.2249 422.007L91.5156 421.944L91.4273 421.249C91.3353 420.546 90.7244 420.579 90.0804 420.616C82.0433 421.068 81.587 419.913 81.5723 419.88C80.8179 417.473 81.2779 416.844 81.2705 416.844L81.8188 416.476L81.2411 415.302L80.6155 415.5C80.6155 415.5 79.7911 415.743 76.7294 415.132C75.699 414.923 75.0476 414.176 74.7937 412.924C74.3374 410.65 75.3899 407.493 76.9575 406.429C77.1537 406.293 77.3733 406.195 77.6052 406.139C77.8545 406.082 78.1141 406.089 78.3596 406.161C78.5648 406.22 78.7597 406.311 78.9374 406.429C79.1729 406.58 79.4195 406.731 79.6734 406.882C81.3809 407.901 83.4711 408.891 85.6681 409.929C89.0463 411.526 92.8772 413.337 96.3401 415.729C98.515 417.234 100.914 419.07 103.454 421.013C107.001 423.729 110.898 426.71 114.917 429.319C119.27 432.141 123.771 434.522 128.139 435.656C129.819 436.11 131.551 436.348 133.291 436.366C133.755 436.366 134.667 436.425 135.727 436.491C138.782 436.69 141.247 436.797 143.139 436.752C144.813 436.712 146.053 436.55 146.878 436.223C147.422 438.254 147.054 440.046 145.796 441.448C144.114 443.255 141.096 444.157 138.741 443.516L138.759 443.498ZM124.448 391.525L115.616 387.437C116.046 381.652 116.374 373.997 116.473 366.093L117.607 366.181C124.845 366.737 132.297 367.311 135.304 367.815L124.448 391.525ZM135.966 366.391C133.107 365.85 125.626 365.287 117.736 364.669L116.503 364.573C116.591 354.817 116.33 344.837 115.487 337.617C122.233 337.746 132.562 338.761 140.077 339.825C140.169 342.879 140.11 344.977 139.834 345.603L141.21 346.224C141.545 345.488 141.648 343.28 141.578 340.035C144.073 340.403 146.167 340.771 147.58 341.084L135.966 366.391ZM148.213 339.667C146.782 339.336 144.416 338.931 141.527 338.511C141.295 332.031 140.507 322.209 139.529 311.342C145.1 311.677 151.367 312.012 157.814 312.332L159.345 315.382L148.213 339.667ZM188.325 369.754C191.45 368.915 196.013 368.904 201.021 369.191C200.896 379.451 200.834 389.015 202.32 393.63L203.056 393.398V394.134C204.528 394.134 206.258 394.024 208.083 393.906C211.612 393.682 215.679 393.42 219.05 393.936L202.714 398.381L188.325 369.754Z" fill="black"/>
<path d="M313.644 147.6C314.314 141.745 312.61 136.994 308.974 134.566C307.515 133.608 305.819 133.074 304.074 133.021C302.329 132.968 300.604 133.4 299.09 134.268C295.844 136.074 293.492 136.682 292.098 136.074C290.648 135.441 290.166 133.498 289.654 131.408C289.102 129.171 288.532 126.856 286.556 126.028C284.833 125.31 282.456 125.91 279.067 127.92C277.875 128.63 276.984 128.88 276.421 128.656C275.663 128.365 275.262 127.095 274.835 125.748C274.055 123.275 272.995 119.89 268.524 120.843C266.827 121.211 265.664 121.163 265.064 120.721C264.465 120.28 264.328 119.198 264.211 117.987C264.06 116.316 263.872 114.241 261.863 113.203L261.171 114.543C262.356 115.157 262.544 116.305 262.709 118.123C262.838 119.566 262.974 121.067 264.181 121.936C265.171 122.672 266.654 122.786 268.851 122.304C271.817 121.671 272.531 123.367 273.407 126.19C273.922 127.816 274.452 129.502 275.895 130.05C276.936 130.448 278.195 130.175 279.851 129.193C282.71 127.493 284.778 126.889 285.982 127.397C287.259 127.931 287.715 129.782 288.19 131.743C288.742 133.973 289.364 136.501 291.502 137.432C293.4 138.26 296.046 137.664 299.826 135.563C301.098 134.831 302.548 134.465 304.015 134.506C305.482 134.546 306.91 134.993 308.139 135.795C311.289 137.9 312.75 142.132 312.146 147.405L313.644 147.6Z" fill="black"/>
<path d="M319.742 146.857L321.251 146.824C321.129 141.488 319.043 133.774 313.552 129.59C310.336 127.139 306.406 126.403 302.188 127.467L302.089 127.5C296.492 129.774 295.465 127.868 293.908 124.987C292.311 122.024 290.32 118.34 282.714 119.301L282.901 120.799C289.489 119.967 291.056 122.885 292.58 125.704C294.162 128.648 295.796 131.666 302.608 128.917C306.395 127.978 309.773 128.608 312.639 130.794C317.379 134.4 319.62 141.462 319.742 146.857Z" fill="black"/>
<path d="M472.753 637.08L476.64 636.902L476.074 636.148L475.519 635.393L472.682 635.521C462.116 636.016 452.14 636.476 439.344 636.484C438.835 635.684 438.024 632.144 437.027 624.813L436.311 625.311L435.59 625.813C436.488 632.155 437.435 636.755 438.318 637.672C438.417 637.787 438.539 637.88 438.676 637.945C438.813 638.01 438.962 638.045 439.114 638.049C452.057 638.042 462.109 637.574 472.753 637.08Z" fill="black"/>
<path d="M447.363 399.047L447.649 398.567C449.261 395.843 450.336 394.737 451.396 394.737C451.462 394.734 451.527 394.734 451.593 394.737C451.632 394.742 451.672 394.751 451.709 394.764C451.268 390.541 452.109 387.421 454.057 386.704L454.592 388.16C453.717 388.481 452.936 390.455 453.185 393.9C453.204 394.186 453.23 394.477 453.268 394.783C453.306 395.088 453.34 395.356 453.385 395.658C453.513 396.477 453.683 397.352 453.924 398.299C454.007 398.575 454.09 398.858 454.177 399.16C454.777 401.209 455.524 403.763 456.868 405.903C462.641 415.083 467.659 418.823 473.64 422.637L474.338 423.079L475.032 423.517L475.84 424.026C479.851 426.539 484.398 429.388 489.835 433.988C496.288 439.444 504.317 442.1 511.86 441.278C518.505 440.553 524.278 437.199 528.565 431.584C533.651 424.913 534.429 413.347 530.331 405.254C521.143 387.093 508.377 387.519 489.058 388.123L488.398 388.142C485.579 388.236 482.315 386.749 478.553 385.029C473.568 382.765 467.365 379.923 460.064 379.923C454.29 379.923 447.989 383.625 445.121 388.726C443.329 391.896 442.008 396.922 445.227 403.416C445.767 401.881 446.483 400.415 447.363 399.047V399.047Z" fill="black"/>
<path d="M305.433 474.449C304.614 476.713 305.9 479.509 306.489 480.596C306.987 481.509 307.376 481.92 307.761 482.124C307.78 482.411 307.795 482.905 307.814 483.52V483.781C307.847 484.852 308.757 485.611 309.723 486.422C310.61 487.177 311.526 487.931 311.742 488.882C312.006 490.078 315.843 493.787 317.402 494.621C317.73 495.24 318.069 495.87 318.42 496.508C320.228 499.844 321.835 501.383 323.628 501.5H323.828C326.156 501.5 328.212 498.923 330.288 496.048C330.423 495.867 330.559 495.67 330.699 495.463C330.782 495.472 330.865 495.472 330.948 495.463C333.517 495.184 336.955 496.014 339.717 496.682C340.987 497.035 342.283 497.288 343.592 497.436C341.147 504.255 341.532 505.198 341.706 505.632C341.762 505.779 341.85 505.912 341.964 506.022C342.077 506.131 342.213 506.215 342.362 506.266C356.274 510.881 359.104 511.594 386.182 518.397L387.314 518.68C393.627 520.265 398.834 521.25 403.418 521.25C409.743 521.25 414.889 519.382 420.142 514.646C424.127 511.058 428.092 507.371 431.964 503.76C431.564 520.559 431.485 539.464 431.424 553.923C431.424 555.093 431.424 556.236 431.424 557.345L432.201 556.696C432.466 556.478 432.722 556.263 432.979 556.055C432.979 555.357 432.979 554.651 432.979 553.927C433.009 546.84 433.043 538.679 433.118 530.223C436.137 530.249 439.114 530.336 442.133 530.479C441.099 539.271 440.378 547.101 440.624 550.278L441.065 550.018C441.159 549.965 441.261 549.912 441.371 549.863C441.616 549.744 441.868 549.638 442.125 549.546C441.748 539.762 448.393 496.04 448.465 495.587L448.529 495.15L448.185 494.87C447.012 493.928 445.894 492.92 444.835 491.852C444.457 491.474 444.11 491.097 443.778 490.72C437.069 483.109 439.25 477.03 441.405 471.121C441.842 469.917 442.291 468.668 442.657 467.438C444.921 459.782 446.004 456.733 449.298 450.036C450.189 448.904 451.381 448.485 452.777 448.421C451.747 451.605 451.645 455.318 452.536 459.25C453.487 463.401 455.23 470.012 457.536 478.324C457.694 478.894 457.853 479.456 458.019 480.06C462.886 497.523 470.037 521.823 477.478 546.093L477.712 546.848C477.776 547.059 477.84 547.271 477.908 547.482C477.908 547.527 477.934 547.569 477.946 547.614C476.036 547.693 473.614 547.791 470.927 547.92C465.995 548.157 460.169 548.493 454.977 548.976C450.74 549.372 446.929 549.863 444.374 550.486C443.488 550.667 442.63 550.963 441.82 551.365L441.673 551.448C439.854 552.504 436.831 554.821 432.956 558.055L432.179 558.704L431.402 559.36C418.233 570.511 396.8 590.585 379.02 607.716C350.018 635.669 327.567 658.746 326.126 662.052C326.771 662.889 327.522 663.799 328.356 664.75L328.88 665.331L329.405 665.908C333.506 670.39 338.002 674.494 342.838 678.171L343.483 678.647C343.705 678.805 343.921 678.96 344.139 679.111C347.886 681.752 351.146 683.262 352.818 682.582C357.572 680.628 376.832 666.531 397.219 651.607C412.312 640.547 425.236 631.148 435.352 624.096L436.08 623.586L436.797 623.088C446.842 616.123 453.943 611.636 457.46 610.365C456.577 608.621 455.573 606.644 454.581 604.618C452.079 599.607 448.963 593.369 448.431 592.758C448.495 592.824 448.574 592.875 448.661 592.905L449.212 591.46C449.74 591.66 450.087 592.154 455.966 603.912C457.011 606.006 458.068 608.127 459.007 609.976H459.098C459.182 609.97 459.266 609.97 459.351 609.976C459.522 609.999 459.688 610.056 459.836 610.145C459.985 610.234 460.114 610.352 460.215 610.493C463.022 614.493 465.497 618.138 467.871 621.662C471.244 626.647 474.285 631.133 477.391 635.276L477.957 636.031L478.53 636.785C493.348 655.977 511.03 667.976 575.313 689.299C575.562 688.812 575.969 688.024 576.528 686.948C576.637 686.733 576.758 686.499 576.905 686.261C577.052 686.024 577.135 685.816 577.26 685.582C578.724 682.786 580.905 678.673 583.791 673.375C583.916 673.153 584.04 672.923 584.169 672.693L584.546 672.01L585.923 669.497C584.859 668.549 581.965 666.697 578.418 664.425C568.875 658.316 553.163 648.249 540.587 635.778H541.719H542.794L613.563 635.189L613.254 634.193C610.688 625.979 580.924 571.96 550.616 524.687V524.11H550.239C545.186 516.239 540.123 508.564 535.172 501.323C545.613 505.387 556.106 509.16 566.279 512.813C581.905 518.427 595.398 523.276 604.39 527.649C604.56 527.729 604.746 527.767 604.933 527.759C605.121 527.751 605.303 527.698 605.465 527.604C605.862 527.366 606.545 526.959 607.352 522.669C611.952 523.118 614.314 525.834 616.593 528.472C618.763 530.977 620.849 533.377 624.517 533.377C625.955 533.377 627.63 533 629.649 532.121L630.218 531.86C630.618 531.672 631.03 531.464 631.456 531.238C631.769 531.336 632.082 531.434 632.403 531.525C635.068 532.268 637.771 532.868 640.501 533.321C642.301 533.634 644.101 533.913 645.882 534.189C647.847 534.487 649.768 534.785 651.609 535.117C652.364 535.256 653.119 535.4 653.873 535.554L654.628 535.72L655.383 535.894C656.617 536.188 657.794 536.517 658.9 536.898L659.322 537.049L659.507 537.113L659.541 537.022L659.658 537.064C659.869 537.135 660.084 537.203 660.292 537.279L659.752 538.728L659.213 538.535L658.835 538.407L658.481 538.29C657.371 537.939 656.217 537.63 654.975 537.354L654.221 537.188L653.466 537.034C653.179 538.005 652.874 538.962 652.549 539.905C648.776 538.886 642.633 536.483 638.063 534.43C635.86 534.003 633.68 533.458 631.535 532.796L631.849 533.007C634.652 534.894 645.987 539.705 652.04 541.369C651.398 543.169 650.708 544.946 650.006 546.757C648.149 551.561 646.232 556.523 644.655 562.866L644.127 564.99L644.448 564.745C644.448 564.798 644.448 564.847 644.47 564.896C644.701 565.896 645.904 566.228 646.923 566.405C654.266 567.669 666.695 570.828 679.853 574.175C697.693 578.703 716.141 583.393 722.356 583.393C723.801 583.393 731.234 579.11 732.166 577.461C732.273 577.301 732.333 577.114 732.34 576.922C732.347 576.729 732.302 576.539 732.208 576.371C732.166 576.308 732.118 576.25 732.065 576.197C734.015 572.744 736.317 564.013 739.498 550.478L739.555 550.225C742.154 550.127 744.815 550.063 747.448 549.995C755.572 549.791 763.972 549.584 770.33 548.505L770.073 546.995C763.825 548.052 755.478 548.263 747.411 548.463C744.916 548.527 742.396 548.588 739.924 548.678C740.456 546.414 740.868 544.731 741.056 544.15C741.677 542.214 742.181 540.242 742.566 538.245C746.165 538.09 749.588 537.788 751.142 537.294L750.671 535.819C749.331 536.245 746.237 536.528 742.879 536.686C744.143 530.132 745.23 521.593 746.226 513.794C747.407 504.507 748.524 495.738 749.573 493.527C749.655 493.361 749.695 493.176 749.689 492.991C749.683 492.805 749.631 492.624 749.539 492.463C748.89 491.297 745.965 490.852 739.905 490.176C737.596 489.92 735.411 489.674 734.544 489.399C730.657 488.154 682.438 480.185 674.008 479.63V479.505L673.189 479.6H673.163C673.084 479.6 673.008 479.622 672.933 479.634C670.076 480.034 668.027 481.584 666.216 482.962C665.767 483.305 665.341 483.63 664.907 483.935C661.782 486.135 661.265 493.346 661.431 496.848C661.45 497.285 661.45 497.757 661.431 498.236C650.236 496.285 628.464 494.531 623.374 502.862C622.837 503.258 622.354 503.724 621.94 504.247C621.808 504.413 621.683 504.583 621.562 504.753C620.43 504.685 619.276 504.636 618.166 504.59C615.287 504.47 612.567 504.357 610.861 503.938C610.663 503.903 610.462 503.895 610.261 503.911H609.307C609.469 501.44 609.552 499.787 609.556 499.761L609.586 499.168L609.024 498.983C597.738 495.293 550.537 475.298 515.966 459.269H516.003H515.954C501.812 452.707 489.794 446.817 483.228 442.968C478.368 440.123 473.561 438.542 469.191 438.244C469.569 435.795 470.214 433.407 471.455 431.829C472.903 429.823 473.986 427.577 474.655 425.196C474.655 425.173 474.655 425.15 474.655 425.128L473.965 424.69L473.274 424.256C466.924 420.234 461.66 416.449 455.54 406.744C454.079 404.42 453.298 401.752 452.672 399.609C452.427 398.767 452.125 397.722 451.834 397.035C451.746 396.779 451.609 396.542 451.43 396.337C451.411 396.317 451.388 396.301 451.362 396.288C451.325 396.288 450.698 396.428 448.963 399.363L448.672 399.85C448.215 400.605 447.733 401.431 447.314 402.307C447.28 402.45 447.242 402.593 447.212 402.741C446.914 404.227 446.517 405.786 446.08 407.363L446.012 407.955L445.944 407.842C445.544 409.265 445.114 410.695 444.687 412.11C443.431 416.26 442.242 420.207 441.914 423.471C441.239 430.112 443.646 433.761 447.465 437.195C448.8 438.399 448.748 439.931 448.695 441.444C448.624 442.374 448.486 443.299 448.283 444.21C444.22 445.172 440.201 448.149 437.107 452.718C430.126 463.027 414.999 482.222 404.143 489.825C399.162 493.32 395.087 494.995 388.993 493.221C387.835 492.886 384.79 491.931 380.933 490.72C375.39 488.98 367.791 486.595 361.689 484.773C350.309 481.377 350.181 481.618 349.799 482.354C349.731 482.486 349.652 482.649 349.562 482.837C349.377 482.762 349.184 482.69 348.969 482.611C348.472 482.446 347.989 482.237 347.528 481.988L347.184 481.766C342.234 478.562 341.717 478.226 338.11 472.728C335.615 468.914 332.276 467.985 329.729 467.895C327.714 463.457 325.631 458.967 324.001 455.911C323.054 454.137 321.507 451.949 319.507 451.605C318.994 451.524 318.468 451.566 317.975 451.729C317.481 451.892 317.034 452.17 316.67 452.541C316.409 452.779 315.915 453.167 315.326 453.673C313.062 455.518 309.289 458.601 307.153 461.567C304.327 465.476 305.414 468.959 306.965 472.562C306.252 472.996 305.711 473.663 305.433 474.449V474.449ZM419.093 513.503C410.493 521.25 402.453 520.899 387.676 517.186L386.563 516.907C359.708 510.156 356.754 509.409 343.117 504.892C343.06 504.138 343.562 502.304 344.347 499.987C349.407 500.278 364.606 500.364 382.182 500.436C399.189 500.519 418.783 500.613 432.02 500.942C432.02 501.168 432.02 501.391 432.02 501.617C427.787 505.534 423.444 509.579 419.093 513.503V513.503ZM583.512 490.625C582.98 490.719 582.441 490.768 581.901 490.773C575.199 490.505 568.672 491.312 562.363 492.093C560.148 492.369 557.853 492.652 555.571 492.886C545.892 493.886 536.055 494.395 526.297 494.723C524.218 493.697 521.795 492.542 519.215 491.327C512.264 488.109 503.521 484.324 500.755 483.611L500.378 485.12C503.427 485.905 514.615 490.822 522.973 494.821C518.86 494.946 514.762 495.048 510.702 495.146L502.955 495.338L502.068 495.365L501.182 495.387C496.62 495.516 492.031 495.667 487.432 495.874L486.632 495.912L485.828 495.953C478.746 496.293 471.652 496.78 464.626 497.531C462.633 490.667 460.822 484.324 459.26 478.713C459.094 478.113 458.928 477.521 458.766 476.939C456.781 469.77 455.238 463.963 454.302 460.042C455.992 460.254 458.977 460.42 462.464 460.578L464.241 460.646C465.709 460.703 467.237 460.752 468.769 460.797L470.18 460.839L471.689 460.876L472.38 460.895L473.236 460.918H474.104C479.644 461.046 484.406 461.114 485.594 461.129C490.549 461.197 495.318 461.227 499.555 461.227C502.065 461.227 504.389 461.227 506.461 461.193C512.064 461.129 514.562 461.005 515.732 460.854C537.41 470.921 563.959 482.479 583.512 490.625ZM607.978 500.293C607.907 501.64 607.828 502.998 607.741 504.349L605.933 521.891C605.556 524.084 605.179 525.615 604.801 526.159C600.239 523.959 594.572 521.631 588.093 519.178C592.206 518.046 601.613 517.231 605.33 517.231V515.684C602.349 515.684 589.391 516.544 585.912 518.352C580.071 516.16 573.626 513.824 566.774 511.379C556.057 507.53 544.983 503.549 534.002 499.236C533.78 498.772 532.84 498.074 529.308 496.236L529.172 496.168C538.032 495.836 546.945 495.334 555.74 494.425C558.031 494.191 560.333 493.904 562.559 493.629C569.094 492.818 575.264 492.055 581.844 492.32C583.26 492.283 584.665 492.063 586.025 491.667C595.994 495.78 603.892 498.897 607.978 500.281V500.293ZM525.154 601.697C524.229 598.99 523.518 596.214 523.026 593.396C522.611 591.173 517.166 572.967 515.954 568.922C518.743 568.333 526.576 567.767 534.523 567.601C547.096 567.345 551.556 568.164 552.258 568.665C552.575 569.854 554.042 573.095 556.054 577.529C559.072 584.219 563.249 593.377 565.487 600.109L565.521 600.218C565.698 600.75 565.857 601.263 566.004 601.761C567.487 606.803 567.513 610.289 566.06 612.383C564.978 613.949 563.042 614.768 560.182 614.881C540.157 615.674 530.719 615.3 525.75 603.237C525.535 602.735 525.342 602.225 525.154 601.697ZM566.943 599.603C564.679 592.811 560.495 583.597 557.446 576.876C555.559 572.726 553.929 569.126 553.718 568.198C553.662 567.995 553.562 567.807 553.426 567.647C553.29 567.486 553.12 567.358 552.929 567.269C548.56 564.862 518.407 566.337 514.724 567.647L514.03 567.892L514.241 568.598C514.309 568.824 521.063 591.305 521.501 593.675C521.987 596.419 522.674 599.123 523.558 601.765L521.935 601.822L521.113 601.848L520.301 601.878L517.581 601.961L516.792 601.984L515.996 602.007C510.019 602.176 504.019 602.282 497.884 602.282V603.825C504.17 603.825 510.298 603.712 516.403 603.539L517.2 603.516L517.988 603.493L520.863 603.403L521.675 603.376L522.49 603.346L524.139 603.29C526.29 608.704 529.278 612.097 533.481 614.093C537.685 616.089 543.085 616.681 550.031 616.681C553.11 616.681 556.503 616.568 560.246 616.421C563.593 616.289 565.977 615.221 567.336 613.255C569.015 610.825 569.106 607.044 567.615 601.743C573.324 601.705 579.512 601.743 585.255 601.769C588.704 601.788 591.964 601.807 594.825 601.807C603.567 617.545 609.654 629.352 611.382 633.676L541.198 634.261H540.145H539.051L530.523 634.333H529.61H528.682L508.985 634.495C504.917 626.635 495.043 597.03 484.715 564.024C489.79 563.36 495.016 563.036 500.246 562.851L501.174 562.821L502.099 562.79C503.286 562.755 504.475 562.726 505.664 562.704L506.461 562.685H507.261L511.034 562.621C518.539 562.492 526.305 562.364 533.897 561.628C539.247 561.111 546.062 561.353 552.654 561.587C559.246 561.821 566.132 562.062 571.49 561.53V561.368C579.897 575.42 587.599 588.804 593.972 600.233C591.33 600.233 588.376 600.233 585.27 600.199C579.369 600.165 573 600.135 567.158 600.177C567.068 599.995 567.011 599.803 566.943 599.603V599.603ZM570.675 560.055C565.517 560.5 559.008 560.27 552.699 560.055C546.058 559.817 539.191 559.575 533.738 560.104C526.191 560.832 518.479 560.96 511 561.085L506.827 561.16H506.03H505.231C503.827 561.19 502.422 561.228 501.016 561.273L500.084 561.304L499.148 561.338C494.129 561.534 489.118 561.87 484.236 562.522C482.828 558.021 481.413 553.466 480.01 548.889C479.93 548.633 479.851 548.38 479.776 548.135C479.7 547.889 479.651 547.735 479.591 547.535C479.591 547.482 479.557 547.429 479.542 547.373C479.478 547.173 479.417 546.973 479.357 546.773C479.278 546.516 479.198 546.263 479.123 546.018C477.172 539.679 475.236 533.306 473.361 527.064C475.962 526.661 478.583 526.409 481.213 526.31C480.68 526.72 480.339 527.529 480.191 528.736C480.066 529.796 480.734 532.834 482.258 533.641C482.515 533.779 482.801 533.853 483.092 533.856C483.575 533.843 484.036 533.652 484.387 533.321C485.741 532.189 485.394 529.966 484.685 528.415C484.277 527.532 483.647 526.638 482.9 526.238C486.443 526.068 490.635 525.944 495.175 525.861L495.978 525.842H496.782C502.152 525.744 507.944 525.687 513.687 525.657H515.283C525.848 525.612 536.096 525.657 543.002 525.657L549.379 525.68C556.703 537.09 563.91 548.772 570.675 560.055ZM483.557 529.755C483.821 530.608 483.934 531.679 483.39 532.128C483.145 532.34 483.058 532.294 483.013 532.26C482.285 531.883 481.666 529.619 481.753 528.895C481.866 527.947 482.077 527.646 482.13 527.57C482.398 527.657 483.138 528.427 483.557 529.759V529.755ZM543.002 524.095C535.613 524.068 525.391 524.027 514.981 524.072H513.373C507.555 524.102 501.721 524.163 496.329 524.268H495.526H494.722C484.617 524.483 476.285 524.868 472.912 525.536C470.127 516.261 467.471 507.277 465.063 498.995C472.104 498.24 479.221 497.768 486.33 497.432L487.134 497.395L487.934 497.357C492.662 497.146 497.367 496.98 502.072 496.866L502.955 496.844L503.838 496.817L510.736 496.648C515.766 496.523 520.852 496.399 525.965 496.229C528.735 497.595 530.923 498.749 532.002 499.432L532.455 500.093C537.738 507.768 543.1 515.846 548.397 524.076L543.002 524.095ZM473.327 459.363L472.452 459.341L471.588 459.307L469.29 459.243L467.969 459.205L466.701 459.163C465.52 459.126 464.392 459.084 463.328 459.043L461.301 458.96C457.649 458.797 454.992 458.616 453.94 458.424C453.185 454.767 453.351 451.341 454.389 448.447C454.479 448.194 454.581 447.945 454.687 447.692C454.792 447.44 454.906 447.194 455.026 446.938C455.124 446.741 455.219 446.56 455.328 446.353C455.328 446.315 455.37 446.277 455.392 446.24L455.419 446.198C455.54 445.987 455.672 445.779 455.796 445.576C455.818 445.544 455.839 445.511 455.856 445.477C455.958 445.33 456.068 445.191 456.173 445.043L456.362 444.791C457.057 443.885 457.877 443.083 458.796 442.406C461.188 440.651 464.139 439.765 467.433 439.716H467.701H468.21C468.467 439.716 468.727 439.734 468.988 439.753C473.138 440.014 477.749 441.531 482.44 444.281C488.651 447.915 499.725 453.383 512.86 459.51C505.619 459.842 487.632 459.71 473.327 459.363ZM446.208 500.115C444.321 499.87 440.959 499.681 436.514 499.527L434.318 499.459L433.609 499.44C433.662 497.61 433.718 495.81 433.779 494.059C433.847 492.071 433.888 489.995 433.933 487.795C434.054 481.837 434.19 475.294 434.907 469.189C436.884 469.189 438.861 469.189 440.435 469.208L439.937 470.604C437.733 476.664 435.288 483.456 442.62 491.757C442.952 492.135 443.303 492.512 443.676 492.889C444.681 493.916 445.742 494.885 446.853 495.795C446.74 496.523 446.514 498.032 446.208 500.096V500.115ZM441.156 467.008C441.093 467.227 441.025 467.446 440.952 467.665C439.442 467.642 437.303 467.619 435.103 467.627C436.265 459.099 438.695 451.628 444.02 448.115C445.189 447.352 446.477 446.788 447.831 446.447C447.355 448.681 447.155 449.753 447.453 450.3C444.442 456.443 443.337 459.601 441.156 466.989V467.008ZM433.111 528.702C433.194 519.88 433.322 510.794 433.533 502.289C433.533 501.843 433.545 501.402 433.567 500.964L434.914 501.002C440.114 501.157 444.035 501.357 445.985 501.617C445.019 508.247 443.484 519.054 442.295 528.947C439.216 528.8 436.197 528.71 433.111 528.683V528.702ZM722.329 581.887C716.292 581.887 697.954 577.223 680.208 572.714C667.02 569.364 654.549 566.198 647.161 564.919C646.751 564.875 646.353 564.756 645.987 564.568C646.236 564.036 647.844 562.877 649.036 562.017C650.602 560.885 652.341 559.628 653.655 558.244C656.039 560.066 665.02 562.247 680.117 565.473C683.441 566.183 686.068 566.741 686.754 566.983C689.773 567.975 697.173 569.624 705.006 571.375C714.745 573.548 728.076 576.525 729.28 577.612C729.386 577.706 729.505 577.784 729.634 577.842C727.487 579.382 723.156 581.808 722.329 581.868V581.887ZM739.743 491.75C742.502 492.055 747.007 492.557 748.063 493.169C746.954 495.912 745.905 504.149 744.698 513.631C743.686 521.555 742.577 530.253 741.302 536.781C737.589 536.909 733.834 536.883 731.974 536.72L731.838 538.26C732.876 538.354 734.642 538.403 736.709 538.403C738.049 538.403 739.509 538.381 740.985 538.335C740.622 540.143 740.155 541.929 739.585 543.682C739.351 544.358 738.909 546.195 738.302 548.769C734.142 548.89 729.993 549.242 725.872 549.825L726.118 551.335C730.035 550.777 733.981 550.435 737.936 550.312C736.838 554.98 735.351 561.3 733.857 566.59C732.117 572.741 731.046 575.031 730.495 575.884H729.45C726.601 574.593 718.13 572.65 705.349 569.797C697.55 568.058 690.188 566.401 687.237 565.447C686.483 565.194 683.943 564.654 680.445 563.904C675.815 562.919 669.48 561.564 664.22 560.225C656.541 558.266 654.889 557.278 654.534 556.93C656.043 550.633 658.009 545.207 660.092 539.467C662.692 532.298 665.375 524.887 667.152 515.541C667.601 513.167 669.34 504.081 670.955 495.772C672.54 489.075 673.736 483.547 673.974 481.173C682.226 481.72 730.706 489.791 734.076 490.867C735.094 491.21 737.249 491.452 739.743 491.731V491.75ZM643.523 498.164C649.499 498.214 655.46 498.763 661.345 499.806V499.825L662.099 499.961L662.854 500.1L663.348 500.195C664.601 500.455 665.658 500.708 666.45 500.949V500.896C666.691 500.961 666.914 501.021 667.114 501.081L666.676 502.564C665.703 502.281 664.333 501.96 662.68 501.64L661.926 501.5L661.171 501.364C660.982 502.964 660.688 504.692 660.33 506.488C658.028 506.134 654.968 505.33 651.489 504.417C645.451 502.836 638.659 501.044 632.886 500.798C631.084 501.166 629.346 501.802 627.732 502.685C633.867 501.383 643.538 503.919 651.096 505.904C654.575 506.817 657.639 507.624 660.013 507.998C659.315 511.25 658.451 514.654 657.632 517.876C656.522 522.223 655.568 525.978 655.236 528.54C654.991 530.41 654.646 532.265 654.202 534.098C651.64 533.555 648.919 533.128 646.07 532.694C641.595 532.008 636.984 531.294 632.682 530.053C632.722 529.87 632.722 529.681 632.682 529.498L631.879 529.472L631.083 529.434H630.705L629.456 529.359C628.834 529.313 628.211 529.268 627.6 529.215L626.917 529.151H626.815C626.177 529.091 625.57 529.023 625.007 528.955C623.551 528.778 622.43 528.578 622.072 528.396L622.781 527.019C623.078 527.114 623.382 527.18 623.691 527.219C624.004 527.268 624.381 527.321 624.823 527.374L625.238 527.423L625.853 527.491L627.441 527.649H627.619C628.969 527.77 630.415 527.872 631.701 527.936L632.796 527.981C633.279 527.981 633.724 528.004 634.105 528.004C634.346 527.849 634.622 527.68 634.946 527.487C636.565 526.544 636.226 524.963 635.924 523.57C635.622 522.178 635.263 520.518 636.407 518.737C637.807 516.552 633.388 508.62 633.331 508.549C632.06 506.447 628.845 505.549 625.106 505.107C624.789 505.07 624.464 505.036 624.14 505.006C624.147 504.976 624.156 504.947 624.166 504.919C624.271 504.599 624.405 504.29 624.566 503.994C625.196 502.879 626.106 501.947 627.207 501.293L627.373 501.202H627.336C631.275 498.757 637.89 498.172 643.527 498.172L643.523 498.164ZM435.899 457.163C434.766 460.56 433.979 464.061 433.549 467.616C431.402 467.638 429.319 467.691 427.806 467.8C430.836 464.035 433.609 460.359 435.899 457.163ZM350.992 483.456C353.961 483.867 371.745 489.452 380.488 492.195C384.352 493.406 387.401 494.365 388.578 494.704C395.234 496.625 399.815 494.742 405.049 491.074C411.554 486.516 419.546 477.898 426.451 469.461C427.206 469.287 430.137 469.2 433.352 469.17C432.643 475.294 432.507 481.796 432.386 487.735C432.341 489.927 432.3 491.999 432.232 493.972C432.171 495.731 432.115 497.534 432.062 499.368C419.036 499.04 399.887 498.946 382.19 498.859C365.115 498.776 350.286 498.704 344.871 498.436C346.283 494.455 348.267 489.58 349.716 486.252C349.876 485.92 350.057 485.598 350.26 485.29C350.313 485.214 350.358 485.133 350.396 485.048C350.564 484.97 350.707 484.847 350.812 484.694C350.916 484.541 350.977 484.362 350.988 484.177C350.996 484.011 350.957 483.846 350.875 483.701C350.916 483.63 350.954 483.543 350.992 483.456ZM308.406 462.461C310.432 459.661 314.107 456.658 316.304 454.862C316.926 454.352 317.436 453.949 317.715 453.681C318.05 453.334 318.505 453.129 318.986 453.107C319.072 453.107 319.158 453.115 319.243 453.13C320.307 453.311 321.545 454.59 322.639 456.639C324.182 459.529 326.144 463.725 328.069 467.959L327.767 467.997C324.854 468.412 321.922 469.978 321.499 471.351C321.054 472.793 321.122 473.86 321.726 474.623C322.748 475.921 324.865 475.789 327.107 475.645C328.993 475.524 331.17 475.389 331.759 476.351L331.967 476.687L332.461 477.819C332.521 477.955 332.619 478.136 332.77 478.411C333.498 479.681 334.092 481.025 334.54 482.418C334.597 482.837 334.646 483.305 334.695 483.86C334.76 484.456 334.796 485.056 334.8 485.656C334.715 486.043 334.559 486.412 334.34 486.743V486.743C334.027 487.233 333.672 487.807 333.302 488.414C333.046 488.754 332.755 489.146 332.416 489.618L332.189 489.927C330.574 492.131 329.846 493.35 329.733 494.157C329.499 494.508 329.269 494.84 329.057 495.134C326.925 498.089 325.205 500.04 323.748 499.942C322.579 499.866 321.288 498.497 319.805 495.753C319.428 495.029 319.051 494.331 318.673 493.644L308.67 472.589C307.044 468.906 305.912 465.918 308.406 462.461Z" fill="black"/>
<path d="M297.961 452.858L298.467 451.383C297.335 451.005 295.897 450.126 294.362 449.205C292.826 448.285 291.162 447.289 289.751 446.764L289.211 448.213C290.49 448.689 292.052 449.628 293.565 450.534C295.173 451.511 296.69 452.42 297.961 452.858Z" fill="black"/>
<path d="M310.391 442.383L310.425 442.429C310.172 442.051 307.942 437.489 307.674 436.901L306.24 437.55C306.263 437.602 308.862 442.998 309.172 443.372L310.391 442.383Z" fill="black"/>
<path d="M323.22 441.07C324.269 438.98 325.08 437.323 325.186 436.561L323.65 436.35C323.575 436.919 322.443 439.168 321.835 440.376C321.537 440.968 321.28 441.485 321.141 441.791L322.552 442.425C322.68 442.149 322.933 441.647 323.22 441.07Z" fill="black"/>
<path d="M333.589 451.76C334.959 450.903 336.834 449.726 337.336 449.496L336.683 448.092C336.136 448.345 334.714 449.224 332.767 450.454C331.899 450.998 331.08 451.511 330.714 451.722L331.487 453.062C331.876 452.832 332.672 452.334 333.589 451.76Z" fill="black"/>
<path d="M470.72 481.415C470.227 481.189 469.674 481.129 469.144 481.241C468.614 481.354 468.135 481.635 467.776 482.041C466.988 483.011 467.116 484.486 468.12 485.984C469.293 487.739 470.799 488.554 471.893 488.554C472.046 488.554 472.198 488.537 472.346 488.501C472.604 488.445 472.837 488.309 473.012 488.111C473.187 487.914 473.295 487.666 473.319 487.403C473.678 482.958 471.421 481.694 470.72 481.415ZM471.784 487.003C471.357 486.95 470.342 486.528 469.406 485.116C468.693 484.052 468.716 483.328 468.976 483.007C469.129 482.861 469.323 482.766 469.533 482.737C469.742 482.707 469.955 482.743 470.142 482.841C471.04 483.211 471.927 484.49 471.784 487.003Z" fill="black"/>
<path d="M475.365 504.179C474.104 504.489 473.908 506.341 473.855 506.949C473.772 507.703 473.885 510.684 475.931 511.273C476.243 511.367 476.567 511.417 476.893 511.42C477.197 511.434 477.501 511.372 477.776 511.24C478.051 511.109 478.289 510.911 478.47 510.665C479.428 509.349 478.583 506.866 477.678 505.522C476.7 504.096 475.81 504.066 475.365 504.179ZM477.172 509.794C477.063 509.903 476.742 509.903 476.334 509.794C475.44 509.533 475.319 507.594 475.372 507.122C475.385 506.631 475.515 506.15 475.749 505.719C476.07 505.881 476.765 506.771 477.142 508.02C477.447 509.039 477.334 509.639 477.172 509.794Z" fill="black"/>
<path d="M492.982 553.64C492.837 553.225 492.663 552.82 492.462 552.429C491.982 551.512 491.216 550.493 490.152 550.425H490.043H490.02C489.72 550.429 489.427 550.514 489.171 550.67C488.534 551.048 488.017 551.87 487.628 553.123C487.39 553.878 488.047 557.413 488.76 557.904C489.775 558.617 490.647 558.972 491.401 558.972C491.816 558.976 492.22 558.843 492.552 558.594C493.684 557.757 493.605 555.821 493.167 554.21C493.099 554.017 493.043 553.817 492.982 553.64ZM491.609 557.353C491.447 557.474 490.854 557.47 489.749 556.704C489.496 556.153 489.039 554.044 489.111 553.557C489.518 552.263 489.93 551.965 490.043 551.965C490.292 551.965 490.998 552.617 491.518 554.142C492.099 555.844 491.945 557.096 491.609 557.349V557.353Z" fill="black"/>
<path d="M286.14 689.638C287.962 691.242 290 693.125 292.154 695.117C298.81 701.264 306.349 708.233 313.375 712.539C314.497 713.23 315.57 713.998 316.587 714.837C317.673 715.705 318.492 716.305 319.356 716.305C320.149 716.305 320.979 715.795 322.092 714.52C322.793 713.732 323.539 712.985 324.326 712.282C325.56 711.15 326.375 710.396 326.212 709.452C326.191 709.321 326.149 709.193 326.088 709.075C327.28 708.124 329.514 705.717 334.114 699.691C335.11 698.389 341.415 689.97 341.506 689.472C341.792 687.963 341.528 686.703 340.728 685.79C339.928 684.876 338.842 684.469 337.54 684.235C339.113 683.137 341.057 681.692 342.921 680.137L342.268 679.669L341.623 679.19C336.823 675.59 331.77 670.742 328.223 666.893L327.703 666.319L327.182 665.742C325.64 667.073 324.168 668.482 322.771 669.964C322.851 669.614 322.909 669.258 322.945 668.9L322.967 668.523L322.722 668.27C322.345 667.893 322.148 667.674 305.055 668.621L303.712 668.696L303.27 668.523L303.127 668.481C300.505 667.998 291.188 663.127 286.181 660.508C282.581 658.622 282.559 658.622 282.291 658.622C278.283 658.437 276.035 658.622 274.744 659.376C271.823 660.531 269.461 663.402 268.654 665.685C268.227 666.866 268.212 667.859 268.612 668.561C271.065 672.802 277.483 682.02 286.14 689.638ZM282.117 660.165C282.494 660.335 283.951 661.093 285.479 661.893C292.441 665.534 300.082 669.44 302.787 670.002L303.474 670.27H303.64L305.15 670.187C314.055 669.693 319.488 669.466 321.299 669.504C321.175 670.149 320.967 670.87 320.752 671.621C320.639 671.998 320.522 672.432 320.409 672.862C319.958 674.361 319.768 675.925 319.847 677.488C320.111 680.564 322.073 683.646 328.582 685.593C328.808 685.654 329.039 685.693 329.272 685.71C330.009 685.761 330.747 685.761 331.484 685.71L332.038 685.684C332.665 685.65 333.344 685.616 334.038 685.601C334.54 685.601 335.046 685.601 335.548 685.601C337.249 685.665 338.823 685.956 339.581 686.824C340.038 687.344 340.185 688.076 340.026 689.057C338.498 691.374 326.876 707.294 324.771 708.132C321.752 707.754 311.621 700.385 299.418 689.714C287.63 679.409 277.933 669.53 276.355 666.225C275.393 664.21 274.491 662.029 275.087 661.131C275.627 660.32 277.631 660.112 279.819 660.112C280.581 660.105 281.366 660.131 282.117 660.165V660.165ZM270.133 666.202C270.817 664.533 271.927 663.072 273.352 661.965C273.378 663.259 274.004 664.882 274.955 666.87C276.921 670.987 288.487 682.19 298.399 690.857C303.263 695.106 319.375 708.894 324.529 709.633C324.575 709.655 324.619 709.678 324.661 709.705C324.248 710.225 323.784 710.703 323.277 711.131C322.446 711.87 321.66 712.658 320.922 713.49C320.167 714.361 319.669 714.769 319.322 714.742C318.975 714.716 318.33 714.233 317.556 713.61C316.487 712.734 315.361 711.929 314.187 711.199C307.289 706.977 299.807 700.06 293.207 693.959C291.045 691.963 289 690.072 287.17 688.457C278.668 680.975 272.371 671.934 269.99 667.768C269.858 667.572 269.831 667.04 270.133 666.206V666.202Z" fill="black"/>
<path d="M566.634 728.572C567.238 729.602 568.521 730.806 571.302 730.685C573.566 730.587 576.245 730.806 579.063 731.039C581.595 731.247 584.24 731.462 586.814 731.462C591.802 731.462 596.53 730.647 599.643 727.368C606.329 720.319 608.676 715.829 611.925 709.633C613.027 707.52 614.276 705.132 615.834 702.392C618.223 698.196 621.977 690.604 620.317 686.895C620.073 686.356 619.702 685.885 619.234 685.522C618.766 685.16 618.217 684.918 617.634 684.816C617.13 684.701 616.651 684.492 616.223 684.201C615.882 683.948 615.491 683.77 615.076 683.678C614.661 683.586 614.232 683.583 613.816 683.669C613.038 682.537 611.374 681.45 608.654 679.771L608.118 679.439C607.518 679.062 606.839 678.632 606.107 678.164C599.692 674.043 594.138 670.783 591.493 672.647C591.132 672.923 590.837 673.274 590.628 673.676C590.419 674.079 590.3 674.522 590.281 674.975C589.055 674.27 587.595 673.492 585.931 672.711C585.806 672.938 585.678 673.168 585.553 673.394C585.429 673.621 585.304 673.851 585.176 674.077C582.286 679.379 580.101 683.511 578.629 686.299C578.505 686.537 578.388 686.767 578.271 686.982C578.154 687.197 578.029 687.454 577.894 687.673C578.803 688.091 579.833 688.529 580.912 688.922C580.854 688.984 580.801 689.051 580.754 689.122C580.233 689.876 580.146 692.212 580.146 697.174C580.146 698.702 578.637 707.89 578.045 708.898C577.502 709.406 576.896 709.843 576.241 710.196C575.445 710.69 574.354 711.369 572.89 712.426C572.486 712.694 572.065 712.935 571.63 713.15C570.121 713.939 568.253 714.92 567.766 717.244C567.713 717.493 567.6 717.882 567.479 718.293C567.143 719.425 566.725 720.787 566.826 721.806C566.109 723.195 565.359 726.383 566.634 728.572ZM569.309 717.538C569.645 715.927 571.034 715.203 572.373 714.497C572.876 714.252 573.36 713.97 573.822 713.656C575.241 712.633 576.263 711.999 577.082 711.49C577.784 711.096 578.442 710.628 579.044 710.094C580.018 709.939 582.912 709.452 583.293 709.388C587.931 708.607 587.931 708.607 588.134 708.373L587.523 707.837L587.357 707.117C586.98 707.196 582.195 708.007 579.844 708.396C580.754 705.17 581.731 698.087 581.731 697.151C581.731 695.204 581.731 690.646 582.063 689.982C582.225 689.748 582.788 689.835 583.689 689.982C584.789 690.251 585.932 690.291 587.048 690.099C588.61 689.755 590.274 688.635 591.678 685.684C591.981 685.04 592.25 684.38 592.481 683.707L592.591 683.382C592.968 682.345 593.345 681.235 593.345 680.198C593.361 679.477 593.112 678.775 592.647 678.224C592.475 678.02 592.28 677.837 592.066 677.677C592.002 677.375 591.949 677.088 591.911 676.817C591.865 676.494 591.835 676.169 591.821 675.843C591.791 674.858 591.987 674.183 592.413 673.881C594.421 672.466 601.496 677.002 605.299 679.435C606.054 679.911 606.726 680.349 607.333 680.726L607.869 681.058C610.865 682.907 612.518 683.929 612.774 684.967C613.031 686.005 612.057 687.707 610.284 690.778C609.374 692.351 608.246 694.31 606.941 696.774L606.846 696.951C595.1 719.108 590.444 721.712 588.983 721.802H588.934C576.252 722.591 569.487 722.27 568.411 721.629C568.347 720.931 568.743 719.595 569.011 718.693C569.124 718.252 569.241 717.852 569.309 717.538V717.538ZM615.416 685.51C615.99 685.891 616.63 686.163 617.302 686.314C617.648 686.362 617.975 686.498 618.254 686.708C618.532 686.918 618.753 687.195 618.895 687.514C619.891 689.733 618.242 695.004 614.484 701.611C612.91 704.373 611.654 706.777 610.544 708.898C607.352 715.003 605.05 719.41 598.511 726.3C594.304 730.738 586.27 730.074 579.184 729.496C576.313 729.258 573.603 729.036 571.226 729.119C569.63 729.187 568.528 728.742 567.962 727.772C567.207 726.455 567.483 724.376 567.962 723.1C569.049 723.5 571.309 723.836 576.116 723.836C579.226 723.836 583.406 723.697 589.014 723.346H589.066C592.859 723.112 599.296 714.475 608.197 697.687L608.291 697.51C609.586 695.068 610.706 693.125 611.608 691.563C613.423 688.416 614.408 686.578 614.34 685.148C614.73 685.138 615.111 685.266 615.416 685.51V685.51Z" fill="black"/>
</g>
<defs>
<clipPath id="clip0">
<rect width="753" height="768" fill="white"/>
</clipPath>
</defs>
</svg>
